# xmcd
# 
# Track frame offsets:
#     150
#     12101
#     24729
#     36102
#     46596
#     59404
#     70732
#     81719
#     93273
#     103829
#     115343
#     127374
#     138448
#     149082
#     161125
#     173131
#     185486
#     197095
# 
# Disc length: 2783
# 
# Revision: 1
# Processed by: cddbd v1.5.2PL0 Copyright (c) Steve Scherf et al.
# Submitted via: fre:ac v1.0.17
# 
DISCID=0d0add12
DTITLE=Jim Reeves - The Collection
DYEAR=2007
DGENRE=Country
TTITLE0=Mexican Joe
TTITLE1=Bimbo
TTITLE2=Penny Candy
TTITLE3=Hillbilly Waltz
TTITLE4=Butterfly Love
TTITLE5=It's Hard To Love Just One
TTITLE6=Red Eyed And Rowdy
TTITLE7=Are You The One
TTITLE8=Where Does A Broken Heart Go
TTITLE9=Give Me One More Kiss
TTITLE10=Shall We Gather At the River (Mother Went A Walkin')
TTITLE11=Gypsy Heart
TTITLE12=Beatin' On The Ding Dong
TTITLE13=The Wilder Your Hearty Beats, The Sweeter You Love
TTITLE14=Padre Of Old San Antone
TTITLE15=Drinking Tequila
TTITLE16=Yonder Comes A Sucker
TTITLE17=According To My Heart
EXTD=YEAR: 2007
EXTT0=
EXTT1=
EXTT2=
EXTT3=
EXTT4=
EXTT5=
EXTT6=
EXTT7=
EXTT8=
EXTT9=
EXTT10=
EXTT11=
EXTT12=
EXTT13=
EXTT14=
EXTT15=
EXTT16=
EXTT17=
PLAYORDER=
